<svg width="24" height="30" viewBox="0 0 24 30" fill="none" xmlns="http://www.w3.org/2000/svg">
<path d="M16.3597 12.55C16.9445 12.1581 17.6156 11.9246 18.3111 11.8712C19.4511 11.7691 20.5837 12.1383 21.4599 12.8977C22.3361 13.6571 22.884 14.7444 22.9832 15.9205C23.0695 16.9226 22.8217 17.925 22.2807 18.762C21.8003 19.4701 21.2592 20.1323 20.6639 20.7406L20.5475 20.8585M7.62869 12.5498C7.04713 12.1598 6.38004 11.9263 5.68847 11.871C5.1237 11.8189 4.55452 11.8825 4.01363 12.058C3.47274 12.2336 2.9708 12.5176 2.53665 12.8939C2.1025 13.2702 1.74469 13.7313 1.48378 14.2507C1.22288 14.7701 1.06402 15.3375 1.01632 15.9204C0.932092 16.9206 1.17553 17.9211 1.70767 18.7618C2.20944 19.6411 2.93937 20.3584 3.81515 20.8325M13.2932 6.69434C14.5818 6.91516 15.7856 7.50109 16.7701 8.38677C17.7546 9.27246 18.4812 10.4232 18.8686 11.7101M5.11978 11.7329C5.49853 10.5529 6.15852 9.4903 7.03917 8.64207C7.91982 7.79383 8.9929 7.18721 10.1599 6.8783M9.78078 8.85706L9.3682 9.2942M14.5533 10.5021L13.9065 11.1693M4.95252 15.3912L4.31693 16.0585M15.5457 16.3461L14.9993 16.9097M9.63582 14.678L9.08943 15.2417M20.82 15.7248L20.4185 16.139M11.6764 4.47406C11.2357 4.47406 10.8132 4.6545 10.5016 4.97595C10.19 5.2974 10.0149 5.73352 10.0149 6.18812C10.0182 6.35975 10.0445 6.53001 10.093 6.69422C10.189 7.05675 10.3985 7.37625 10.689 7.60307C10.9794 7.82988 11.3344 7.95136 11.6987 7.94824C12.1393 7.94824 12.5619 7.76752 12.8735 7.44607C13.1851 7.12462 13.3602 6.68878 13.3602 6.23418C13.3662 6.00329 13.3269 5.77328 13.2447 5.55844C13.1625 5.3436 13.0391 5.14821 12.8818 4.98381C12.7246 4.81942 12.5367 4.68947 12.3296 4.60185C12.1224 4.51423 11.9003 4.47088 11.6764 4.47406ZM11.6764 4.47406C11.5592 3.81242 11.6494 3.1762 11.8942 2.55285C12.1391 1.92949 12.5508 1.39086 13.0814 1M20.5475 20.8585C20.4096 22.4662 19.9852 24.0373 19.2923 25.4916C19.049 26.143 18.6835 26.7384 18.2166 27.2438C17.7497 27.7492 17.1906 28.1544 16.5715 28.4363C15.1785 28.8762 14.0071 29 12.2674 29C10.5277 29 9.20378 28.9052 7.7402 28.4363C7.12111 28.1544 6.56209 27.7492 6.09519 27.2438C5.62829 26.7384 5.26271 26.143 5.01942 25.4916C4.18198 23.6977 3.7511 21.7307 3.7594 19.7396C3.76881 19.4662 3.84031 19.1986 3.96813 18.9589C4.09595 18.7191 4.27653 18.5136 4.49535 18.359C4.82896 18.2156 5.19065 18.1554 5.55103 18.1834C5.91142 18.2114 6.26031 18.3269 6.56937 18.5202C7.18027 18.9164 7.88835 19.124 8.60995 19.1184C10.0818 18.9113 10.7843 17.0361 12.4012 17.2662C13.7393 17.4617 14.4529 18.9343 15.7464 19.1184C16.4713 19.1224 17.1825 18.915 17.7981 18.5202C18.1038 18.3234 18.4511 18.2059 18.8104 18.1778C19.1696 18.1498 19.5301 18.2119 19.861 18.359C20.0817 18.5116 20.2638 18.7167 20.3918 18.9569C20.5199 19.1971 20.5902 19.4656 20.597 19.7396C20.5959 20.1139 20.5793 20.4872 20.5475 20.8585Z" stroke="#05154C" stroke-linecap="round" stroke-linejoin="round"/>
</svg>
