<svg width="17" height="34" viewBox="0 0 17 34" fill="none" xmlns="http://www.w3.org/2000/svg">
<path d="M4.37501 22.2773C3.67494 24.0427 3.14094 25.8762 2.78071 27.7515C2.52828 29.1516 2.329 31.4618 3.48485 32.4699C3.7165 32.7041 4.00319 32.869 4.31541 32.9478C4.62763 33.0265 4.95412 33.0161 5.26128 32.9177C5.56843 32.8193 5.84517 32.6364 6.06301 32.3879C6.28085 32.1394 6.43196 31.8344 6.50073 31.5039C6.67344 30.2999 6.34127 24.9373 6.30141 23.5513C6.30141 22.6412 6.30141 21.7172 6.30141 20.7511C6.30141 15.5709 6.12872 6.94666 6.11543 1.76638C6.10461 1.60947 6.05151 1.45881 5.96234 1.33262C5.87316 1.20643 5.75163 1.10993 5.61207 1.05404C5.47251 0.998155 5.3207 0.98519 5.17451 1.01713C5.02832 1.04906 4.89384 1.12443 4.78686 1.23418C1.33258 5.64441 -0.142135 11.3849 1.99686 16.8172C2.3581 17.8014 2.94523 18.6758 3.7057 19.3623C4.46616 20.0489 5.37625 20.526 6.35457 20.7511M11.9479 14.647C11.7884 17.6711 11.1773 20.6392 10.7787 23.6353C10.4202 25.5534 10.2466 27.5046 10.2606 29.4595C10.3669 30.9576 10.885 32.9737 12.6387 32.9877C13.1193 33.003 13.5897 32.8397 13.9673 32.5259C14.39 32.0761 14.6806 31.5071 14.8043 30.8876C15.0154 29.972 15.0916 29.0275 15.0301 28.0875C15.0301 26.5894 14.698 25.1334 14.4987 23.6633C14.1001 20.6672 13.489 17.6991 13.3296 14.675M11.443 1.54212V8.54249M13.8876 8.50044V1.50008M9.27745 1.54212V11.1328C9.28094 12.0711 9.6362 12.97 10.2658 13.6335C10.8954 14.297 11.7483 14.6713 12.6387 14.675C13.5291 14.6713 14.382 14.297 15.0116 13.6335C15.6412 12.97 15.9965 12.0711 16 11.1328V1.54212" stroke="#05154C" stroke-linecap="round" stroke-linejoin="round"/>
</svg>
