<svg width="35" height="32" viewBox="0 0 35 32" fill="none" xmlns="http://www.w3.org/2000/svg">
<path d="M7.89473 17.3455C9.25861 17.682 10.6635 17.9125 12.088 18.0336C15.0956 18.2841 18.1252 18.3431 21.1456 18.2099C25.0842 18.2876 28.9717 17.5163 32.3627 15.9849C32.7729 16.201 33.1116 16.4869 33.3518 16.8203C33.592 17.1537 33.7271 17.5253 33.7465 17.9055C34.0279 20.4682 33.39 23.0412 31.9014 25.3482M21.8375 30.582C21.2295 30.582 20.6005 30.6938 19.9715 30.7258C18.8602 30.7258 17.749 30.7258 16.6378 30.7258C11.7945 30.6138 6.59485 29.5254 4.1837 25.9242C2.08705 22.9312 1.3532 18.786 3.63855 15.761M16.2395 16.4492C16.5214 16.2232 16.7187 15.9436 16.8109 15.6395C16.9031 15.3355 16.8868 15.018 16.7636 14.7205C16.6332 14.4277 16.4129 14.1631 16.1211 13.9487C15.8293 13.7343 15.4745 13.5763 15.0863 13.488C13.6844 13.354 12.2655 13.6038 11.0817 14.1925C9.34149 14.7527 7.28675 15.985 5.35783 16.017C1.16454 16.017 -0.932077 9.29459 3.36606 8.28625C3.82604 8.17001 4.3227 8.16945 4.78312 8.28469C5.24354 8.39993 5.64338 8.62511 5.92391 8.9267C6.76257 9.93504 6.511 11.1033 7.85285 11.9355C8.47892 12.3126 9.18926 12.6001 9.9495 12.7839C11.2495 13.1263 12.6031 13.3364 13.9751 13.4083M28.8822 12.6716C27.564 12.7204 26.2434 12.6235 24.9615 12.3837C24.1815 12.2521 23.4369 12.0194 22.7601 11.6955C21.2924 10.9433 21.3763 9.72674 20.3908 8.76642C20.0569 8.48134 19.6132 8.28464 19.1235 8.20412C18.6338 8.1236 18.1232 8.16335 17.6652 8.31822C13.4719 9.69469 16.4282 16.4331 20.7892 16.049C22.7391 15.8729 24.668 14.4485 26.3662 13.7283C27.5037 13.0389 28.9187 12.6711 30.3708 12.6877C30.7798 12.7456 31.1647 12.8776 31.4931 13.0726C31.8214 13.2675 32.0837 13.52 32.2579 13.8084C32.4269 14.103 32.4869 14.4273 32.4314 14.7462C32.376 15.065 32.2072 15.366 31.9433 15.6168C31.408 16.1593 30.7093 16.5954 29.9064 16.8879C29.1034 17.1805 28.2199 17.3209 27.3307 17.2974C25.677 17.1139 24.1772 16.4553 23.1374 15.4566M30.245 25.6682C28.8867 25.9961 27.4756 26.1794 26.0517 26.2126C25.2704 26.2374 24.4895 26.1559 23.7454 25.9723C22.11 25.5401 21.8165 24.3718 20.5795 23.6676C20.1861 23.4502 19.7128 23.3331 19.2271 23.3331C18.7414 23.3331 18.2682 23.4502 17.8748 23.6676C14.3524 25.7643 19.3006 31.5742 23.2842 30.3898C25.0663 29.8616 26.4082 28.149 27.792 27.1887C28.7774 26.4844 29.7838 25.588 31.2304 25.46C31.6284 25.4517 32.0238 25.5123 32.3868 25.637C32.7499 25.7617 33.0713 25.9476 33.3271 26.1805C33.5745 26.4286 33.7302 26.7227 33.7782 27.0324C33.8261 27.342 33.7645 27.6556 33.5997 27.9409C33.264 28.5539 32.7402 29.0965 32.0725 29.5227C31.4047 29.9489 30.6126 30.2462 29.7628 30.3898C28.9523 30.471 28.1286 30.4281 27.3402 30.2632C26.5517 30.0983 25.8143 29.8149 25.1712 29.4297M15.1282 3.11647C14.696 3.97249 14.1027 4.77585 13.367 5.50126C12.9355 5.94279 12.4113 6.3271 11.8155 6.63798C10.4737 7.27819 9.25759 6.76602 7.8738 7.03811C7.4281 7.14086 7.03986 7.3536 6.77032 7.64339C6.50079 7.93319 6.36526 8.28356 6.38514 8.63865C6.25934 11.8397 14.3944 12.4797 15.6104 9.58272C15.8286 8.11245 15.7223 6.62466 15.2959 5.18123C14.9976 4.1968 15.1454 3.16411 15.7153 2.25212C15.9252 2.01727 16.2064 1.82478 16.535 1.69099C16.8636 1.5572 17.2298 1.48612 17.6022 1.48389C17.9714 1.49906 18.3288 1.58875 18.6381 1.74335C18.9474 1.89795 19.1976 2.11203 19.3634 2.36426C19.725 2.91581 19.9134 3.52427 19.9134 4.14104C19.9134 4.75781 19.725 5.36588 19.3634 5.91742C18.5826 6.91401 17.3159 7.63351 15.841 7.9181" stroke="#05154C" stroke-linecap="round" stroke-linejoin="round"/>
</svg>
