<svg width="34" height="35" viewBox="0 0 34 35" fill="none" xmlns="http://www.w3.org/2000/svg">
<path d="M2.8966 11.7685L2.64273 11.3258C2.46448 11.016 2.40068 10.6522 2.46267 10.2992C2.52466 9.94618 2.70842 9.62671 2.98122 9.39807L3.36201 9.06969C3.6418 8.8472 3.82818 8.52606 3.88383 8.17031L3.96845 7.67042C4.02813 7.32889 4.19978 7.01765 4.45569 6.78707C4.71159 6.55649 5.0368 6.42017 5.37879 6.39978L5.88651 6.39978C6.24385 6.40995 6.59168 6.28236 6.85965 6.04281L7.24045 5.71443C7.51165 5.48562 7.8535 5.36026 8.20653 5.36026C8.55955 5.36026 8.9014 5.48562 9.17261 5.71443M21.8657 20.5354C21.5866 21.0837 21.1139 21.5055 20.5417 21.7172C19.9694 21.9288 19.3395 21.9148 18.777 21.6778L17.9449 21.3637C17.3465 21.1537 16.6958 21.1537 16.0974 21.3637L15.2512 21.6778C14.6818 21.9013 14.0523 21.9119 13.4759 21.7077C12.8995 21.5036 12.4138 21.0981 12.1061 20.564M9.17261 5.99994L9.32775 5.10021C9.43754 4.46995 9.76388 3.89921 10.2491 3.48899C10.7343 3.07877 11.3471 2.85573 11.9792 2.85872L12.8818 2.85872C13.5121 2.8561 14.1214 2.62831 14.6024 2.21591L15.2935 1.63061C15.7792 1.22312 16.3903 1 17.0212 1C17.652 1 18.2631 1.22312 18.7488 1.63061L19.4399 2.21591C19.9197 2.63048 20.5297 2.85857 21.1605 2.85872L22.0631 2.85872C22.6938 2.86133 23.3037 3.0867 23.7878 3.49596C24.2718 3.90521 24.5996 4.47243 24.7146 5.10021L24.8697 5.99994C24.9705 6.633 25.2966 7.20671 25.7864 7.61325L26.4634 8.19889C26.8014 8.47903 27.0658 8.83929 27.2331 9.24782C27.4004 9.65635 27.4655 10.1003 27.4224 10.5404M6.634 10.6405C6.57183 10.187 6.62466 9.72481 6.7875 9.29767C6.95034 8.87053 7.21783 8.49251 7.56483 8.19889M8.62258 22.9055C8.62258 22.9055 13.3613 22.9056 13.6434 34M16.0269 27.5461C15.4627 22.6485 12.8818 21.4066 12.8818 21.4066M21.3156 18.4079L21.2169 18.9503C21.1543 19.3247 21.223 19.7098 21.411 20.0383C21.599 20.3669 21.8945 20.6182 22.2465 20.7495L22.7401 20.921C23.0913 21.0595 23.3883 21.3102 23.5863 21.6349L23.8402 22.1062C24.033 22.431 24.3299 22.679 24.6815 22.809C25.0332 22.9389 25.4182 22.9429 25.7723 22.8201L26.28 22.6343C26.6309 22.5056 27.0152 22.5056 27.366 22.6343L27.8737 22.8201C28.2256 22.9447 28.6093 22.9413 28.9592 22.8111C29.3091 22.6808 29.6034 22.4319 29.7918 22.1062L30.0597 21.6349C30.2483 21.3076 30.542 21.0556 30.8919 20.921L31.3996 20.7495C31.7515 20.6182 32.047 20.3669 32.2351 20.0383C32.4231 19.7098 32.4917 19.3247 32.4291 18.9503L32.3304 18.4079C32.2604 18.0339 32.3308 17.6469 32.5278 17.3227L32.7817 16.8514C32.972 16.5241 33.041 16.139 32.9764 15.7649C32.9118 15.3907 32.7178 15.0522 32.4291 14.8097L32.0201 14.467C31.7344 14.2231 31.5443 13.8839 31.4842 13.5105L31.3855 12.982C31.3198 12.6087 31.1274 12.2705 30.8416 12.0254C30.5558 11.7804 30.1945 11.644 29.82 11.6399L29.2841 11.6399C28.9082 11.6441 28.5431 11.5125 28.2545 11.2686L27.8455 10.9117C27.5588 10.6689 27.1968 10.5359 26.823 10.5359C26.4492 10.5359 26.0873 10.6689 25.8005 10.9117L25.3915 11.2686C25.1017 11.5103 24.7374 11.6417 24.362 11.6399L23.826 11.6399C23.4508 11.6412 23.088 11.7764 22.8016 12.022C22.5153 12.2675 22.3237 12.6075 22.2606 12.982L22.1619 13.5105C22.1017 13.8839 21.9116 14.2231 21.6259 14.467L21.2169 14.8097M31.1034 11.7685L31.3573 11.3258C31.5355 11.016 31.5993 10.6522 31.5373 10.2992C31.4753 9.94618 31.2916 9.62671 31.0188 9.39807L30.638 9.06969C30.3705 8.83661 30.1869 8.52038 30.1162 8.17031L30.0316 7.67042C29.9743 7.32779 29.8033 7.01531 29.5469 6.78428C29.2905 6.55325 28.964 6.41764 28.6212 6.39978L28.1135 6.39978C27.761 6.40634 27.4188 6.27898 27.1544 6.04281L26.7596 5.71443C26.5004 5.47764 26.1637 5.34632 25.8146 5.34632C25.4655 5.34632 25.1289 5.47764 24.8697 5.71443M25.3774 22.9055C25.3774 22.9055 20.6387 22.9056 20.3707 34M17.9731 27.5461C18.5373 22.6485 21.1182 21.4066 21.1182 21.4066M8.21359 10.9117L8.62258 11.2686C8.90749 11.5093 9.26698 11.6407 9.63802 11.6399L10.174 11.6399C10.5501 11.6434 10.9134 11.7792 11.2016 12.0241C11.4897 12.2689 11.6849 12.6075 11.7535 12.982L11.8382 13.5105C11.9043 13.885 12.0991 14.2238 12.3882 14.467L12.7972 14.8097C13.0835 15.0539 13.2757 15.3922 13.3402 15.7656C13.4046 16.1389 13.3372 16.5234 13.1498 16.8514L12.8818 17.3227C12.6958 17.6511 12.6308 18.0356 12.6985 18.4079L12.7831 18.9503C12.8485 19.325 12.7811 19.7112 12.5927 20.0404C12.4043 20.3696 12.1071 20.6206 11.7535 20.7495L11.2599 20.921C10.91 21.0556 10.6163 21.3076 10.4278 21.6349L10.1598 22.1062C9.96896 22.433 9.67213 22.6826 9.31985 22.8128C8.96757 22.943 8.58162 22.9456 8.22769 22.8201L7.73406 22.6343C7.37836 22.5058 6.98969 22.5058 6.63399 22.6343L6.14039 22.8201C5.78646 22.9456 5.4005 22.943 5.04822 22.8128C4.69594 22.6826 4.39909 22.433 4.20821 22.1062L3.94026 21.6349C3.75172 21.3076 3.45801 21.0556 3.10814 20.921L2.60042 20.7495C2.24947 20.618 1.95541 20.3659 1.76975 20.0369C1.58409 19.708 1.51867 19.3232 1.58498 18.9503L1.66961 18.4079C1.73728 18.0356 1.67231 17.6511 1.48626 17.3227L1.21829 16.8514C1.02802 16.5241 0.959001 16.139 1.0236 15.7649C1.0882 15.3907 1.28221 15.0522 1.57088 14.8097L1.97989 14.467C2.26442 14.22 2.45823 13.883 2.52992 13.5105L2.61454 12.982C2.68322 12.6075 2.87835 12.2689 3.16651 12.0241C3.45467 11.7792 3.81793 11.6434 4.19411 11.6399L4.73005 11.6399C5.10109 11.6407 5.46059 11.5093 5.74549 11.2686L6.15448 10.9117C6.44464 10.6703 6.80851 10.5383 7.18403 10.5383C7.55954 10.5383 7.92343 10.6703 8.21359 10.9117Z" stroke="#05154C" stroke-linecap="round" stroke-linejoin="round"/>
</svg>
